<?xml version="1.0" encoding="UTF-8" standalone="no"?>
<svg
   xmlns:dc="http://purl.org/dc/elements/1.1/"
   xmlns:cc="http://creativecommons.org/ns#"
   xmlns:rdf="http://www.w3.org/1999/02/22-rdf-syntax-ns#"
   xmlns:svg="http://www.w3.org/2000/svg"
   xmlns="http://www.w3.org/2000/svg"
   id="svg8"
   version="1.1"
   viewBox="0 0 300 150"
   height="150mm"
   width="300mm">
  <defs
     id="defs2" />
  <metadata
     id="metadata5">
    <rdf:RDF>
      <cc:Work
         rdf:about="">
        <dc:format>image/svg+xml</dc:format>
        <dc:type
           rdf:resource="http://purl.org/dc/dcmitype/StillImage" />
        <dc:title></dc:title>
      </cc:Work>
    </rdf:RDF>
  </metadata>
  <g
     transform="translate(0,-147)"
     id="layer1">
    <g
       id="text817"
       style="font-style:normal;font-variant:normal;font-weight:normal;font-stretch:normal;font-size:257.27999878px;line-height:1.25;font-family:'Trebuchet MS';-inkscape-font-specification:'Trebuchet MS';letter-spacing:0px;word-spacing:0px;fill:#c8c8c8;fill-opacity:1;stroke:none;stroke-width:4.01999998"
       transform="scale(0.92967121,1.0756491)"
       aria-label="â˜">
      <path
         id="path827"
         style="fill:#c8c8c8;fill-opacity:1;stroke-width:5.50567102"
         d="m 202.99205,141.83715 h 3.78515 q 37.33533,0 57.46544,39.91611 l 3.61309,14.79649 q 6.71005,-6.02182 16.00087,-6.02182 23.22704,4.6454 23.22704,23.3991 0,8.43055 -5.84978,17.37727 17.72139,3.9572 17.72139,16.34496 v 4.47336 q -3.09694,17.37727 -16.86112,17.37727 H 2.5512286 v -1.54846 q 9.8069764,0 32.8619734,-29.93709 7.914402,-6.71004 16.861117,-6.71004 h 5.677723 l -2.064626,-8.43056 q 0,-18.58163 27.528354,-27.0122 l 6.710036,-0.68821 7.226193,0.68821 -0.860267,-2.06462 q 0,-25.29168 35.098648,-40.77638 l 11.5275,-1.37641 q 8.25851,0 16.17291,7.39824 20.64627,-17.20522 43.70126,-17.20522 z" />
    </g>
    <flowRoot
       transform="matrix(0.26458333,0,0,0.26458333,0,-3)"
       style="font-style:normal;font-variant:normal;font-weight:normal;font-stretch:normal;font-size:64px;line-height:1.25;font-family:'Trebuchet MS';-inkscape-font-specification:'Trebuchet MS';letter-spacing:0px;word-spacing:0px;fill:#000000;fill-opacity:1;stroke:none"
       id="flowRoot819"
       xml:space="preserve"><flowRegion
         id="flowRegion821"><rect
           y="405.28683"
           x="148.57143"
           height="100"
           width="0"
           id="rect823" /></flowRegion><flowPara
         id="flowPara825" /></flowRoot>  </g>
</svg>
